<svg width="1680" height="60" viewBox="0 0 1680 60" fill="none" xmlns="http://www.w3.org/2000/svg">
<rect width="1680" height="60" fill="white"/>
<path d="M118.092 45.656C117.751 45.656 117.476 45.5517 117.267 45.3431C117.078 45.1535 116.983 44.888 116.983 44.5467V31.1209C117.002 29.6418 117.353 28.3144 118.035 27.1387C118.737 25.944 119.676 25.0053 120.851 24.3227C122.046 23.64 123.383 23.2987 124.862 23.2987C126.379 23.2987 127.735 23.6495 128.93 24.3511C130.124 25.0338 131.063 25.9724 131.746 27.1671C132.447 28.3618 132.798 29.7176 132.798 31.2347C132.798 32.7327 132.457 34.0791 131.774 35.2738C131.11 36.4684 130.2 37.4166 129.043 38.1182C127.887 38.8009 126.578 39.1422 125.118 39.1422C123.848 39.1422 122.691 38.8767 121.648 38.3458C120.624 37.7959 119.799 37.0753 119.173 36.184V44.5467C119.173 44.888 119.069 45.1535 118.86 45.3431C118.671 45.5517 118.415 45.656 118.092 45.656ZM124.862 37.1511C125.962 37.1511 126.948 36.8951 127.82 36.3831C128.693 35.8711 129.375 35.1695 129.868 34.2782C130.38 33.368 130.636 32.3535 130.636 31.2347C130.636 30.0969 130.38 29.0824 129.868 28.1911C129.375 27.2999 128.693 26.5982 127.82 26.0862C126.948 25.5553 125.962 25.2898 124.862 25.2898C123.781 25.2898 122.805 25.5553 121.932 26.0862C121.06 26.5982 120.377 27.2999 119.884 28.1911C119.391 29.0824 119.145 30.0969 119.145 31.2347C119.145 32.3535 119.391 33.368 119.884 34.2782C120.377 35.1695 121.06 35.8711 121.932 36.3831C122.805 36.8951 123.781 37.1511 124.862 37.1511ZM150.008 39C149.686 39 149.42 38.8957 149.211 38.6871C149.003 38.4785 148.899 38.2225 148.899 37.9191V30.5236C148.899 29.3479 148.671 28.3807 148.216 27.6222C147.78 26.8637 147.173 26.2948 146.395 25.9156C145.637 25.5363 144.774 25.3467 143.807 25.3467C142.878 25.3467 142.034 25.5268 141.275 25.8871C140.536 26.2474 139.948 26.7404 139.512 27.3662C139.076 27.992 138.858 28.7031 138.858 29.4996H137.293C137.331 28.3049 137.654 27.243 138.26 26.3138C138.867 25.3656 139.673 24.6261 140.678 24.0951C141.683 23.5452 142.802 23.2702 144.035 23.2702C145.381 23.2702 146.585 23.5547 147.647 24.1236C148.709 24.6735 149.543 25.4889 150.15 26.5698C150.776 27.6507 151.089 28.9686 151.089 30.5236V37.9191C151.089 38.2225 150.984 38.4785 150.776 38.6871C150.567 38.8957 150.311 39 150.008 39ZM137.777 39C137.435 39 137.16 38.9052 136.952 38.7156C136.762 38.507 136.667 38.2415 136.667 37.9191V24.5502C136.667 24.2089 136.762 23.9434 136.952 23.7538C137.16 23.5452 137.435 23.4409 137.777 23.4409C138.099 23.4409 138.355 23.5452 138.545 23.7538C138.753 23.9434 138.858 24.2089 138.858 24.5502V37.9191C138.858 38.2415 138.753 38.507 138.545 38.7156C138.355 38.9052 138.099 39 137.777 39ZM137.777 32.6569C137.435 32.6569 137.16 32.5526 136.952 32.344C136.762 32.1354 136.667 31.8699 136.667 31.5476V17.8942C136.667 17.5529 136.762 17.2874 136.952 17.0978C137.16 16.8892 137.435 16.7849 137.777 16.7849C138.099 16.7849 138.355 16.8892 138.545 17.0978C138.753 17.2874 138.858 17.5529 138.858 17.8942V31.5476C138.858 31.8699 138.753 32.1354 138.545 32.344C138.355 32.5526 138.099 32.6569 137.777 32.6569ZM162.573 39.1422C161.056 39.1422 159.701 38.8009 158.506 38.1182C157.311 37.4356 156.373 36.4969 155.69 35.3022C155.007 34.1076 154.666 32.7517 154.666 31.2347C154.666 29.6987 155.007 28.3333 155.69 27.1387C156.373 25.944 157.311 25.0053 158.506 24.3227C159.701 23.64 161.056 23.2987 162.573 23.2987C164.09 23.2987 165.437 23.64 166.613 24.3227C167.807 25.0053 168.746 25.944 169.429 27.1387C170.111 28.3333 170.462 29.6987 170.481 31.2347C170.481 32.7517 170.13 34.1076 169.429 35.3022C168.746 36.4969 167.807 37.4356 166.613 38.1182C165.437 38.8009 164.09 39.1422 162.573 39.1422ZM162.573 37.1511C163.673 37.1511 164.659 36.8951 165.532 36.3831C166.404 35.8711 167.087 35.1695 167.58 34.2782C168.073 33.387 168.319 32.3724 168.319 31.2347C168.319 30.0969 168.073 29.0824 167.58 28.1911C167.087 27.2809 166.404 26.5698 165.532 26.0578C164.659 25.5458 163.673 25.2898 162.573 25.2898C161.474 25.2898 160.488 25.5458 159.615 26.0578C158.743 26.5698 158.051 27.2809 157.539 28.1911C157.046 29.0824 156.799 30.0969 156.799 31.2347C156.799 32.3724 157.046 33.387 157.539 34.2782C158.051 35.1695 158.743 35.8711 159.615 36.3831C160.488 36.8951 161.474 37.1511 162.573 37.1511ZM180.401 39C179.396 39 178.495 38.763 177.699 38.2889C176.922 37.8148 176.305 37.1701 175.85 36.3547C175.395 35.5203 175.167 34.5721 175.167 33.5102V19.6009C175.167 19.2785 175.262 19.013 175.452 18.8044C175.66 18.5958 175.926 18.4916 176.248 18.4916C176.571 18.4916 176.836 18.5958 177.045 18.8044C177.253 19.013 177.358 19.2785 177.358 19.6009V33.5102C177.358 34.4773 177.642 35.2738 178.211 35.8996C178.78 36.5064 179.51 36.8098 180.401 36.8098H181.169C181.473 36.8098 181.719 36.9141 181.909 37.1227C182.098 37.3313 182.193 37.5967 182.193 37.9191C182.193 38.2415 182.079 38.507 181.852 38.7156C181.624 38.9052 181.34 39 180.999 39H180.401ZM173.319 25.9156C173.034 25.9156 172.797 25.8302 172.607 25.6596C172.418 25.4699 172.323 25.2424 172.323 24.9769C172.323 24.6924 172.418 24.4649 172.607 24.2942C172.797 24.1046 173.034 24.0098 173.319 24.0098H180.572C180.856 24.0098 181.093 24.1046 181.283 24.2942C181.473 24.4649 181.567 24.6924 181.567 24.9769C181.567 25.2424 181.473 25.4699 181.283 25.6596C181.093 25.8302 180.856 25.9156 180.572 25.9156H173.319ZM192.415 39.1422C190.898 39.1422 189.542 38.8009 188.347 38.1182C187.152 37.4356 186.214 36.4969 185.531 35.3022C184.848 34.1076 184.507 32.7517 184.507 31.2347C184.507 29.6987 184.848 28.3333 185.531 27.1387C186.214 25.944 187.152 25.0053 188.347 24.3227C189.542 23.64 190.898 23.2987 192.415 23.2987C193.932 23.2987 195.278 23.64 196.454 24.3227C197.648 25.0053 198.587 25.944 199.27 27.1387C199.952 28.3333 200.303 29.6987 200.322 31.2347C200.322 32.7517 199.971 34.1076 199.27 35.3022C198.587 36.4969 197.648 37.4356 196.454 38.1182C195.278 38.8009 193.932 39.1422 192.415 39.1422ZM192.415 37.1511C193.514 37.1511 194.5 36.8951 195.373 36.3831C196.245 35.8711 196.928 35.1695 197.421 34.2782C197.914 33.387 198.16 32.3724 198.16 31.2347C198.16 30.0969 197.914 29.0824 197.421 28.1911C196.928 27.2809 196.245 26.5698 195.373 26.0578C194.5 25.5458 193.514 25.2898 192.415 25.2898C191.315 25.2898 190.329 25.5458 189.456 26.0578C188.584 26.5698 187.892 27.2809 187.38 28.1911C186.887 29.0824 186.64 30.0969 186.64 31.2347C186.64 32.3724 186.887 33.387 187.38 34.2782C187.892 35.1695 188.584 35.8711 189.456 36.3831C190.329 36.8951 191.315 37.1511 192.415 37.1511Z" fill="black"/>
<path fill-rule="evenodd" clip-rule="evenodd" d="M95.8464 16.963H80L86.6722 23.6351H102.519L95.8464 16.963ZM86.6722 23.6351V39.4815L80 32.8093V16.963L86.6722 23.6351Z" fill="#CCCCCC"/>
<path fill-rule="evenodd" clip-rule="evenodd" d="M86.6722 39.4815H102.519L95.8464 32.8093H80L86.6722 39.4815ZM95.8464 32.8093V16.963L102.519 23.6351V39.4815L95.8464 32.8093Z" fill="black"/>
<path d="M276.242 25.805V29.465H281.507V30.755H276.242V35H274.742V24.5H282.152V25.805H276.242ZM290.765 31.07C290.765 31.18 290.755 31.325 290.735 31.505H284.285C284.375 32.205 284.68 32.77 285.2 33.2C285.73 33.62 286.385 33.83 287.165 33.83C288.115 33.83 288.88 33.51 289.46 32.87L290.255 33.8C289.895 34.22 289.445 34.54 288.905 34.76C288.375 34.98 287.78 35.09 287.12 35.09C286.28 35.09 285.535 34.92 284.885 34.58C284.235 34.23 283.73 33.745 283.37 33.125C283.02 32.505 282.845 31.805 282.845 31.025C282.845 30.255 283.015 29.56 283.355 28.94C283.705 28.32 284.18 27.84 284.78 27.5C285.39 27.15 286.075 26.975 286.835 26.975C287.595 26.975 288.27 27.15 288.86 27.5C289.46 27.84 289.925 28.32 290.255 28.94C290.595 29.56 290.765 30.27 290.765 31.07ZM286.835 28.19C286.145 28.19 285.565 28.4 285.095 28.82C284.635 29.24 284.365 29.79 284.285 30.47H289.385C289.305 29.8 289.03 29.255 288.56 28.835C288.1 28.405 287.525 28.19 286.835 28.19ZM295.215 26.975C296.315 26.975 297.155 27.245 297.735 27.785C298.325 28.325 298.62 29.13 298.62 30.2V35H297.255V33.95C297.015 34.32 296.67 34.605 296.22 34.805C295.78 34.995 295.255 35.09 294.645 35.09C293.755 35.09 293.04 34.875 292.5 34.445C291.97 34.015 291.705 33.45 291.705 32.75C291.705 32.05 291.96 31.49 292.47 31.07C292.98 30.64 293.79 30.425 294.9 30.425H297.18V30.14C297.18 29.52 297 29.045 296.64 28.715C296.28 28.385 295.75 28.22 295.05 28.22C294.58 28.22 294.12 28.3 293.67 28.46C293.22 28.61 292.84 28.815 292.53 29.075L291.93 27.995C292.34 27.665 292.83 27.415 293.4 27.245C293.97 27.065 294.575 26.975 295.215 26.975ZM294.885 33.98C295.435 33.98 295.91 33.86 296.31 33.62C296.71 33.37 297 33.02 297.18 32.57V31.46H294.96C293.74 31.46 293.13 31.87 293.13 32.69C293.13 33.09 293.285 33.405 293.595 33.635C293.905 33.865 294.335 33.98 294.885 33.98ZM305.53 34.535C305.32 34.715 305.06 34.855 304.75 34.955C304.44 35.045 304.12 35.09 303.79 35.09C302.99 35.09 302.37 34.875 301.93 34.445C301.49 34.015 301.27 33.4 301.27 32.6V28.235H299.92V27.05H301.27V25.31H302.71V27.05H304.99V28.235H302.71V32.54C302.71 32.97 302.815 33.3 303.025 33.53C303.245 33.76 303.555 33.875 303.955 33.875C304.395 33.875 304.77 33.75 305.08 33.5L305.53 34.535ZM314.455 27.05V35H313.09V33.8C312.8 34.21 312.415 34.53 311.935 34.76C311.465 34.98 310.95 35.09 310.39 35.09C309.33 35.09 308.495 34.8 307.885 34.22C307.275 33.63 306.97 32.765 306.97 31.625V27.05H308.41V31.46C308.41 32.23 308.595 32.815 308.965 33.215C309.335 33.605 309.865 33.8 310.555 33.8C311.315 33.8 311.915 33.57 312.355 33.11C312.795 32.65 313.015 32 313.015 31.16V27.05H314.455ZM318.352 28.385C318.602 27.925 318.972 27.575 319.462 27.335C319.952 27.095 320.547 26.975 321.247 26.975V28.37C321.167 28.36 321.057 28.355 320.917 28.355C320.137 28.355 319.522 28.59 319.072 29.06C318.632 29.52 318.412 30.18 318.412 31.04V35H316.972V27.05H318.352V28.385ZM329.908 31.07C329.908 31.18 329.898 31.325 329.878 31.505H323.428C323.518 32.205 323.823 32.77 324.343 33.2C324.873 33.62 325.528 33.83 326.308 33.83C327.258 33.83 328.023 33.51 328.603 32.87L329.398 33.8C329.038 34.22 328.588 34.54 328.048 34.76C327.518 34.98 326.923 35.09 326.263 35.09C325.423 35.09 324.678 34.92 324.028 34.58C323.378 34.23 322.873 33.745 322.513 33.125C322.163 32.505 321.988 31.805 321.988 31.025C321.988 30.255 322.158 29.56 322.498 28.94C322.848 28.32 323.323 27.84 323.923 27.5C324.533 27.15 325.218 26.975 325.978 26.975C326.738 26.975 327.413 27.15 328.003 27.5C328.603 27.84 329.068 28.32 329.398 28.94C329.738 29.56 329.908 30.27 329.908 31.07ZM325.978 28.19C325.288 28.19 324.708 28.4 324.238 28.82C323.778 29.24 323.508 29.79 323.428 30.47H328.528C328.448 29.8 328.173 29.255 327.703 28.835C327.243 28.405 326.668 28.19 325.978 28.19ZM333.963 35.09C333.313 35.09 332.688 35.005 332.088 34.835C331.488 34.655 331.018 34.43 330.678 34.16L331.278 33.02C331.628 33.27 332.053 33.47 332.553 33.62C333.053 33.77 333.558 33.845 334.068 33.845C335.328 33.845 335.958 33.485 335.958 32.765C335.958 32.525 335.873 32.335 335.703 32.195C335.533 32.055 335.318 31.955 335.058 31.895C334.808 31.825 334.448 31.75 333.978 31.67C333.338 31.57 332.813 31.455 332.403 31.325C332.003 31.195 331.658 30.975 331.368 30.665C331.078 30.355 330.933 29.92 330.933 29.36C330.933 28.64 331.233 28.065 331.833 27.635C332.433 27.195 333.238 26.975 334.248 26.975C334.778 26.975 335.308 27.04 335.838 27.17C336.368 27.3 336.803 27.475 337.143 27.695L336.528 28.835C335.878 28.415 335.113 28.205 334.233 28.205C333.623 28.205 333.158 28.305 332.838 28.505C332.518 28.705 332.358 28.97 332.358 29.3C332.358 29.56 332.448 29.765 332.628 29.915C332.808 30.065 333.028 30.175 333.288 30.245C333.558 30.315 333.933 30.395 334.413 30.485C335.053 30.595 335.568 30.715 335.958 30.845C336.358 30.965 336.698 31.175 336.978 31.475C337.258 31.775 337.398 32.195 337.398 32.735C337.398 33.455 337.088 34.03 336.468 34.46C335.858 34.88 335.023 35.09 333.963 35.09Z" fill="#18A0FB"/>
<path d="M383.767 24.5C385.127 24.5 386.197 24.825 386.977 25.475C387.757 26.125 388.147 27.02 388.147 28.16C388.147 29.3 387.757 30.195 386.977 30.845C386.197 31.495 385.127 31.82 383.767 31.82H381.172V35H379.672V24.5H383.767ZM383.722 30.515C384.672 30.515 385.397 30.315 385.897 29.915C386.397 29.505 386.647 28.92 386.647 28.16C386.647 27.4 386.397 26.82 385.897 26.42C385.397 26.01 384.672 25.805 383.722 25.805H381.172V30.515H383.722ZM391.164 28.385C391.414 27.925 391.784 27.575 392.274 27.335C392.764 27.095 393.359 26.975 394.059 26.975V28.37C393.979 28.36 393.869 28.355 393.729 28.355C392.949 28.355 392.334 28.59 391.884 29.06C391.444 29.52 391.224 30.18 391.224 31.04V35H389.784V27.05H391.164V28.385ZM395.609 27.05H397.049V35H395.609V27.05ZM396.329 25.52C396.049 25.52 395.814 25.43 395.624 25.25C395.444 25.07 395.354 24.85 395.354 24.59C395.354 24.33 395.444 24.11 395.624 23.93C395.814 23.74 396.049 23.645 396.329 23.645C396.609 23.645 396.839 23.735 397.019 23.915C397.209 24.085 397.304 24.3 397.304 24.56C397.304 24.83 397.209 25.06 397.019 25.25C396.839 25.43 396.609 25.52 396.329 25.52ZM403.038 35.09C402.228 35.09 401.503 34.915 400.863 34.565C400.233 34.215 399.738 33.735 399.378 33.125C399.018 32.505 398.838 31.805 398.838 31.025C398.838 30.245 399.018 29.55 399.378 28.94C399.738 28.32 400.233 27.84 400.863 27.5C401.503 27.15 402.228 26.975 403.038 26.975C403.758 26.975 404.398 27.12 404.958 27.41C405.528 27.7 405.968 28.12 406.278 28.67L405.183 29.375C404.933 28.995 404.623 28.71 404.253 28.52C403.883 28.33 403.473 28.235 403.023 28.235C402.503 28.235 402.033 28.35 401.613 28.58C401.203 28.81 400.878 29.14 400.638 29.57C400.408 29.99 400.293 30.475 400.293 31.025C400.293 31.585 400.408 32.08 400.638 32.51C400.878 32.93 401.203 33.255 401.613 33.485C402.033 33.715 402.503 33.83 403.023 33.83C403.473 33.83 403.883 33.735 404.253 33.545C404.623 33.355 404.933 33.07 405.183 32.69L406.278 33.38C405.968 33.93 405.528 34.355 404.958 34.655C404.398 34.945 403.758 35.09 403.038 35.09ZM407.918 27.05H409.358V35H407.918V27.05ZM408.638 25.52C408.358 25.52 408.123 25.43 407.933 25.25C407.753 25.07 407.663 24.85 407.663 24.59C407.663 24.33 407.753 24.11 407.933 23.93C408.123 23.74 408.358 23.645 408.638 23.645C408.918 23.645 409.148 23.735 409.328 23.915C409.518 24.085 409.613 24.3 409.613 24.56C409.613 24.83 409.518 25.06 409.328 25.25C409.148 25.43 408.918 25.52 408.638 25.52ZM416.127 26.975C417.137 26.975 417.937 27.27 418.527 27.86C419.127 28.44 419.427 29.295 419.427 30.425V35H417.987V30.59C417.987 29.82 417.802 29.24 417.432 28.85C417.062 28.46 416.532 28.265 415.842 28.265C415.062 28.265 414.447 28.495 413.997 28.955C413.547 29.405 413.322 30.055 413.322 30.905V35H411.882V27.05H413.262V28.25C413.552 27.84 413.942 27.525 414.432 27.305C414.932 27.085 415.497 26.975 416.127 26.975ZM429.516 27.05V33.92C429.516 35.31 429.171 36.335 428.481 36.995C427.791 37.665 426.761 38 425.391 38C424.641 38 423.926 37.895 423.246 37.685C422.566 37.485 422.016 37.195 421.596 36.815L422.286 35.705C422.656 36.025 423.111 36.275 423.651 36.455C424.201 36.645 424.766 36.74 425.346 36.74C426.276 36.74 426.961 36.52 427.401 36.08C427.851 35.64 428.076 34.97 428.076 34.07V33.44C427.736 33.85 427.316 34.16 426.816 34.37C426.326 34.57 425.791 34.67 425.211 34.67C424.451 34.67 423.761 34.51 423.141 34.19C422.531 33.86 422.051 33.405 421.701 32.825C421.351 32.235 421.176 31.565 421.176 30.815C421.176 30.065 421.351 29.4 421.701 28.82C422.051 28.23 422.531 27.775 423.141 27.455C423.761 27.135 424.451 26.975 425.211 26.975C425.811 26.975 426.366 27.085 426.876 27.305C427.396 27.525 427.821 27.85 428.151 28.28V27.05H429.516ZM425.376 33.41C425.896 33.41 426.361 33.3 426.771 33.08C427.191 32.86 427.516 32.555 427.746 32.165C427.986 31.765 428.106 31.315 428.106 30.815C428.106 30.045 427.851 29.425 427.341 28.955C426.831 28.475 426.176 28.235 425.376 28.235C424.566 28.235 423.906 28.475 423.396 28.955C422.886 29.425 422.631 30.045 422.631 30.815C422.631 31.315 422.746 31.765 422.976 32.165C423.216 32.555 423.541 32.86 423.951 33.08C424.371 33.3 424.846 33.41 425.376 33.41Z" fill="#18A0FB"/>
<path d="M477.311 35.12C476.261 35.12 475.311 34.89 474.461 34.43C473.621 33.96 472.961 33.32 472.481 32.51C472.001 31.69 471.761 30.77 471.761 29.75C471.761 28.73 472.001 27.815 472.481 27.005C472.961 26.185 473.626 25.545 474.476 25.085C475.326 24.615 476.276 24.38 477.326 24.38C478.146 24.38 478.896 24.52 479.576 24.8C480.256 25.07 480.836 25.475 481.316 26.015L480.341 26.96C479.551 26.13 478.566 25.715 477.386 25.715C476.606 25.715 475.901 25.89 475.271 26.24C474.641 26.59 474.146 27.075 473.786 27.695C473.436 28.305 473.261 28.99 473.261 29.75C473.261 30.51 473.436 31.2 473.786 31.82C474.146 32.43 474.641 32.91 475.271 33.26C475.901 33.61 476.606 33.785 477.386 33.785C478.556 33.785 479.541 33.365 480.341 32.525L481.316 33.47C480.836 34.01 480.251 34.42 479.561 34.7C478.881 34.98 478.131 35.12 477.311 35.12ZM486.089 35.09C485.299 35.09 484.589 34.915 483.959 34.565C483.329 34.215 482.834 33.735 482.474 33.125C482.124 32.505 481.949 31.805 481.949 31.025C481.949 30.245 482.124 29.55 482.474 28.94C482.834 28.32 483.329 27.84 483.959 27.5C484.589 27.15 485.299 26.975 486.089 26.975C486.879 26.975 487.584 27.15 488.204 27.5C488.834 27.84 489.324 28.32 489.674 28.94C490.034 29.55 490.214 30.245 490.214 31.025C490.214 31.805 490.034 32.505 489.674 33.125C489.324 33.735 488.834 34.215 488.204 34.565C487.584 34.915 486.879 35.09 486.089 35.09ZM486.089 33.83C486.599 33.83 487.054 33.715 487.454 33.485C487.864 33.245 488.184 32.915 488.414 32.495C488.644 32.065 488.759 31.575 488.759 31.025C488.759 30.475 488.644 29.99 488.414 29.57C488.184 29.14 487.864 28.81 487.454 28.58C487.054 28.35 486.599 28.235 486.089 28.235C485.579 28.235 485.119 28.35 484.709 28.58C484.309 28.81 483.989 29.14 483.749 29.57C483.519 29.99 483.404 30.475 483.404 31.025C483.404 31.575 483.519 32.065 483.749 32.495C483.989 32.915 484.309 33.245 484.709 33.485C485.119 33.715 485.579 33.83 486.089 33.83ZM501.926 26.975C502.926 26.975 503.716 27.265 504.296 27.845C504.886 28.425 505.181 29.285 505.181 30.425V35H503.741V30.59C503.741 29.82 503.561 29.24 503.201 28.85C502.851 28.46 502.346 28.265 501.686 28.265C500.956 28.265 500.376 28.495 499.946 28.955C499.516 29.405 499.301 30.055 499.301 30.905V35H497.861V30.59C497.861 29.82 497.681 29.24 497.321 28.85C496.971 28.46 496.466 28.265 495.806 28.265C495.076 28.265 494.496 28.495 494.066 28.955C493.636 29.405 493.421 30.055 493.421 30.905V35H491.981V27.05H493.361V28.235C493.651 27.825 494.031 27.515 494.501 27.305C494.971 27.085 495.506 26.975 496.106 26.975C496.726 26.975 497.276 27.1 497.756 27.35C498.236 27.6 498.606 27.965 498.866 28.445C499.166 27.985 499.581 27.625 500.111 27.365C500.651 27.105 501.256 26.975 501.926 26.975ZM517.55 26.975C518.55 26.975 519.34 27.265 519.92 27.845C520.51 28.425 520.805 29.285 520.805 30.425V35H519.365V30.59C519.365 29.82 519.185 29.24 518.825 28.85C518.475 28.46 517.97 28.265 517.31 28.265C516.58 28.265 516 28.495 515.57 28.955C515.14 29.405 514.925 30.055 514.925 30.905V35H513.485V30.59C513.485 29.82 513.305 29.24 512.945 28.85C512.595 28.46 512.09 28.265 511.43 28.265C510.7 28.265 510.12 28.495 509.69 28.955C509.26 29.405 509.045 30.055 509.045 30.905V35H507.605V27.05H508.985V28.235C509.275 27.825 509.655 27.515 510.125 27.305C510.595 27.085 511.13 26.975 511.73 26.975C512.35 26.975 512.9 27.1 513.38 27.35C513.86 27.6 514.23 27.965 514.49 28.445C514.79 27.985 515.205 27.625 515.735 27.365C516.275 27.105 516.88 26.975 517.55 26.975ZM530.64 27.05V35H529.275V33.8C528.985 34.21 528.6 34.53 528.12 34.76C527.65 34.98 527.135 35.09 526.575 35.09C525.515 35.09 524.68 34.8 524.07 34.22C523.46 33.63 523.155 32.765 523.155 31.625V27.05H524.595V31.46C524.595 32.23 524.78 32.815 525.15 33.215C525.52 33.605 526.05 33.8 526.74 33.8C527.5 33.8 528.1 33.57 528.54 33.11C528.98 32.65 529.2 32 529.2 31.16V27.05H530.64ZM537.401 26.975C538.411 26.975 539.211 27.27 539.801 27.86C540.401 28.44 540.701 29.295 540.701 30.425V35H539.261V30.59C539.261 29.82 539.076 29.24 538.706 28.85C538.336 28.46 537.806 28.265 537.116 28.265C536.336 28.265 535.721 28.495 535.271 28.955C534.821 29.405 534.596 30.055 534.596 30.905V35H533.156V27.05H534.536V28.25C534.826 27.84 535.216 27.525 535.706 27.305C536.206 27.085 536.771 26.975 537.401 26.975ZM543.141 27.05H544.581V35H543.141V27.05ZM543.861 25.52C543.581 25.52 543.346 25.43 543.156 25.25C542.976 25.07 542.886 24.85 542.886 24.59C542.886 24.33 542.976 24.11 543.156 23.93C543.346 23.74 543.581 23.645 543.861 23.645C544.141 23.645 544.371 23.735 544.551 23.915C544.741 24.085 544.836 24.3 544.836 24.56C544.836 24.83 544.741 25.06 544.551 25.25C544.371 25.43 544.141 25.52 543.861 25.52ZM551.576 34.535C551.366 34.715 551.106 34.855 550.796 34.955C550.486 35.045 550.166 35.09 549.836 35.09C549.036 35.09 548.416 34.875 547.976 34.445C547.536 34.015 547.316 33.4 547.316 32.6V28.235H545.966V27.05H547.316V25.31H548.756V27.05H551.036V28.235H548.756V32.54C548.756 32.97 548.861 33.3 549.071 33.53C549.291 33.76 549.601 33.875 550.001 33.875C550.441 33.875 550.816 33.75 551.126 33.5L551.576 34.535ZM559.98 27.05L556.125 35.795C555.785 36.605 555.385 37.175 554.925 37.505C554.475 37.835 553.93 38 553.29 38C552.9 38 552.52 37.935 552.15 37.805C551.79 37.685 551.49 37.505 551.25 37.265L551.865 36.185C552.275 36.575 552.75 36.77 553.29 36.77C553.64 36.77 553.93 36.675 554.16 36.485C554.4 36.305 554.615 35.99 554.805 35.54L555.06 34.985L551.55 27.05H553.05L555.825 33.41L558.57 27.05H559.98Z" fill="#18A0FB"/>
<path d="M604.799 35.12C604.009 35.12 603.244 35 602.504 34.76C601.774 34.51 601.199 34.19 600.779 33.8L601.334 32.63C601.734 32.99 602.244 33.285 602.864 33.515C603.494 33.735 604.139 33.845 604.799 33.845C605.669 33.845 606.319 33.7 606.749 33.41C607.179 33.11 607.394 32.715 607.394 32.225C607.394 31.865 607.274 31.575 607.034 31.355C606.804 31.125 606.514 30.95 606.164 30.83C605.824 30.71 605.339 30.575 604.709 30.425C603.919 30.235 603.279 30.045 602.789 29.855C602.309 29.665 601.894 29.375 601.544 28.985C601.204 28.585 601.034 28.05 601.034 27.38C601.034 26.82 601.179 26.315 601.469 25.865C601.769 25.415 602.219 25.055 602.819 24.785C603.419 24.515 604.164 24.38 605.054 24.38C605.674 24.38 606.284 24.46 606.884 24.62C607.484 24.78 607.999 25.01 608.429 25.31L607.934 26.51C607.494 26.23 607.024 26.02 606.524 25.88C606.024 25.73 605.534 25.655 605.054 25.655C604.204 25.655 603.564 25.81 603.134 26.12C602.714 26.43 602.504 26.83 602.504 27.32C602.504 27.68 602.624 27.975 602.864 28.205C603.104 28.425 603.399 28.6 603.749 28.73C604.109 28.85 604.594 28.98 605.204 29.12C605.994 29.31 606.629 29.5 607.109 29.69C607.589 29.88 607.999 30.17 608.339 30.56C608.689 30.95 608.864 31.475 608.864 32.135C608.864 32.685 608.714 33.19 608.414 33.65C608.114 34.1 607.659 34.46 607.049 34.73C606.439 34.99 605.689 35.12 604.799 35.12ZM618.031 27.05V35H616.666V33.8C616.376 34.21 615.991 34.53 615.511 34.76C615.041 34.98 614.526 35.09 613.966 35.09C612.906 35.09 612.071 34.8 611.461 34.22C610.851 33.63 610.546 32.765 610.546 31.625V27.05H611.986V31.46C611.986 32.23 612.171 32.815 612.541 33.215C612.911 33.605 613.441 33.8 614.131 33.8C614.891 33.8 615.491 33.57 615.931 33.11C616.371 32.65 616.591 32 616.591 31.16V27.05H618.031ZM624.762 26.975C625.532 26.975 626.222 27.145 626.832 27.485C627.442 27.825 627.917 28.3 628.257 28.91C628.607 29.52 628.782 30.225 628.782 31.025C628.782 31.825 628.607 32.535 628.257 33.155C627.917 33.765 627.442 34.24 626.832 34.58C626.222 34.92 625.532 35.09 624.762 35.09C624.192 35.09 623.667 34.98 623.187 34.76C622.717 34.54 622.317 34.22 621.987 33.8V37.91H620.547V27.05H621.927V28.31C622.247 27.87 622.652 27.54 623.142 27.32C623.632 27.09 624.172 26.975 624.762 26.975ZM624.642 33.83C625.152 33.83 625.607 33.715 626.007 33.485C626.417 33.245 626.737 32.915 626.967 32.495C627.207 32.065 627.327 31.575 627.327 31.025C627.327 30.475 627.207 29.99 626.967 29.57C626.737 29.14 626.417 28.81 626.007 28.58C625.607 28.35 625.152 28.235 624.642 28.235C624.142 28.235 623.687 28.355 623.277 28.595C622.877 28.825 622.557 29.15 622.317 29.57C622.087 29.99 621.972 30.475 621.972 31.025C621.972 31.575 622.087 32.065 622.317 32.495C622.547 32.915 622.867 33.245 623.277 33.485C623.687 33.715 624.142 33.83 624.642 33.83ZM634.762 26.975C635.532 26.975 636.222 27.145 636.832 27.485C637.442 27.825 637.917 28.3 638.257 28.91C638.607 29.52 638.782 30.225 638.782 31.025C638.782 31.825 638.607 32.535 638.257 33.155C637.917 33.765 637.442 34.24 636.832 34.58C636.222 34.92 635.532 35.09 634.762 35.09C634.192 35.09 633.667 34.98 633.187 34.76C632.717 34.54 632.317 34.22 631.987 33.8V37.91H630.547V27.05H631.927V28.31C632.247 27.87 632.652 27.54 633.142 27.32C633.632 27.09 634.172 26.975 634.762 26.975ZM634.642 33.83C635.152 33.83 635.607 33.715 636.007 33.485C636.417 33.245 636.737 32.915 636.967 32.495C637.207 32.065 637.327 31.575 637.327 31.025C637.327 30.475 637.207 29.99 636.967 29.57C636.737 29.14 636.417 28.81 636.007 28.58C635.607 28.35 635.152 28.235 634.642 28.235C634.142 28.235 633.687 28.355 633.277 28.595C632.877 28.825 632.557 29.15 632.317 29.57C632.087 29.99 631.972 30.475 631.972 31.025C631.972 31.575 632.087 32.065 632.317 32.495C632.547 32.915 632.867 33.245 633.277 33.485C633.687 33.715 634.142 33.83 634.642 33.83ZM643.951 35.09C643.161 35.09 642.451 34.915 641.821 34.565C641.191 34.215 640.696 33.735 640.336 33.125C639.986 32.505 639.811 31.805 639.811 31.025C639.811 30.245 639.986 29.55 640.336 28.94C640.696 28.32 641.191 27.84 641.821 27.5C642.451 27.15 643.161 26.975 643.951 26.975C644.741 26.975 645.446 27.15 646.066 27.5C646.696 27.84 647.186 28.32 647.536 28.94C647.896 29.55 648.076 30.245 648.076 31.025C648.076 31.805 647.896 32.505 647.536 33.125C647.186 33.735 646.696 34.215 646.066 34.565C645.446 34.915 644.741 35.09 643.951 35.09ZM643.951 33.83C644.461 33.83 644.916 33.715 645.316 33.485C645.726 33.245 646.046 32.915 646.276 32.495C646.506 32.065 646.621 31.575 646.621 31.025C646.621 30.475 646.506 29.99 646.276 29.57C646.046 29.14 645.726 28.81 645.316 28.58C644.916 28.35 644.461 28.235 643.951 28.235C643.441 28.235 642.981 28.35 642.571 28.58C642.171 28.81 641.851 29.14 641.611 29.57C641.381 29.99 641.266 30.475 641.266 31.025C641.266 31.575 641.381 32.065 641.611 32.495C641.851 32.915 642.171 33.245 642.571 33.485C642.981 33.715 643.441 33.83 643.951 33.83ZM651.223 28.385C651.473 27.925 651.843 27.575 652.333 27.335C652.823 27.095 653.418 26.975 654.118 26.975V28.37C654.038 28.36 653.928 28.355 653.788 28.355C653.008 28.355 652.393 28.59 651.943 29.06C651.503 29.52 651.283 30.18 651.283 31.04V35H649.843V27.05H651.223V28.385ZM660.46 34.535C660.25 34.715 659.99 34.855 659.68 34.955C659.37 35.045 659.05 35.09 658.72 35.09C657.92 35.09 657.3 34.875 656.86 34.445C656.42 34.015 656.2 33.4 656.2 32.6V28.235H654.85V27.05H656.2V25.31H657.64V27.05H659.92V28.235H657.64V32.54C657.64 32.97 657.745 33.3 657.955 33.53C658.175 33.76 658.485 33.875 658.885 33.875C659.325 33.875 659.7 33.75 660.01 33.5L660.46 34.535Z" fill="#18A0FB"/>
<rect x="1470" y="10" width="130" height="40" rx="6" fill="#18A0FB"/>
<path d="M1512.67 35L1510.4 31.775C1510.12 31.795 1509.9 31.805 1509.74 31.805H1507.15V35H1505.65V24.5H1509.74C1511.1 24.5 1512.17 24.825 1512.95 25.475C1513.73 26.125 1514.12 27.02 1514.12 28.16C1514.12 28.97 1513.92 29.66 1513.52 30.23C1513.12 30.8 1512.55 31.215 1511.81 31.475L1514.3 35H1512.67ZM1509.7 30.53C1510.65 30.53 1511.37 30.325 1511.87 29.915C1512.37 29.505 1512.62 28.92 1512.62 28.16C1512.62 27.4 1512.37 26.82 1511.87 26.42C1511.37 26.01 1510.65 25.805 1509.7 25.805H1507.15V30.53H1509.7ZM1523.3 31.07C1523.3 31.18 1523.29 31.325 1523.27 31.505H1516.82C1516.91 32.205 1517.21 32.77 1517.73 33.2C1518.26 33.62 1518.92 33.83 1519.7 33.83C1520.65 33.83 1521.41 33.51 1521.99 32.87L1522.79 33.8C1522.43 34.22 1521.98 34.54 1521.44 34.76C1520.91 34.98 1520.31 35.09 1519.65 35.09C1518.81 35.09 1518.07 34.92 1517.42 34.58C1516.77 34.23 1516.26 33.745 1515.9 33.125C1515.55 32.505 1515.38 31.805 1515.38 31.025C1515.38 30.255 1515.55 29.56 1515.89 28.94C1516.24 28.32 1516.71 27.84 1517.31 27.5C1517.92 27.15 1518.61 26.975 1519.37 26.975C1520.13 26.975 1520.8 27.15 1521.39 27.5C1521.99 27.84 1522.46 28.32 1522.79 28.94C1523.13 29.56 1523.3 30.27 1523.3 31.07ZM1519.37 28.19C1518.68 28.19 1518.1 28.4 1517.63 28.82C1517.17 29.24 1516.9 29.79 1516.82 30.47H1521.92C1521.84 29.8 1521.56 29.255 1521.09 28.835C1520.63 28.405 1520.06 28.19 1519.37 28.19ZM1532.68 27.05V33.92C1532.68 35.31 1532.33 36.335 1531.64 36.995C1530.95 37.665 1529.92 38 1528.55 38C1527.8 38 1527.09 37.895 1526.41 37.685C1525.73 37.485 1525.18 37.195 1524.76 36.815L1525.45 35.705C1525.82 36.025 1526.27 36.275 1526.81 36.455C1527.36 36.645 1527.93 36.74 1528.51 36.74C1529.44 36.74 1530.12 36.52 1530.56 36.08C1531.01 35.64 1531.24 34.97 1531.24 34.07V33.44C1530.9 33.85 1530.48 34.16 1529.98 34.37C1529.49 34.57 1528.95 34.67 1528.37 34.67C1527.61 34.67 1526.92 34.51 1526.3 34.19C1525.69 33.86 1525.21 33.405 1524.86 32.825C1524.51 32.235 1524.34 31.565 1524.34 30.815C1524.34 30.065 1524.51 29.4 1524.86 28.82C1525.21 28.23 1525.69 27.775 1526.3 27.455C1526.92 27.135 1527.61 26.975 1528.37 26.975C1528.97 26.975 1529.53 27.085 1530.04 27.305C1530.56 27.525 1530.98 27.85 1531.31 28.28V27.05H1532.68ZM1528.54 33.41C1529.06 33.41 1529.52 33.3 1529.93 33.08C1530.35 32.86 1530.68 32.555 1530.91 32.165C1531.15 31.765 1531.27 31.315 1531.27 30.815C1531.27 30.045 1531.01 29.425 1530.5 28.955C1529.99 28.475 1529.34 28.235 1528.54 28.235C1527.73 28.235 1527.07 28.475 1526.56 28.955C1526.05 29.425 1525.79 30.045 1525.79 30.815C1525.79 31.315 1525.91 31.765 1526.14 32.165C1526.38 32.555 1526.7 32.86 1527.11 33.08C1527.53 33.3 1528.01 33.41 1528.54 33.41ZM1535.2 27.05H1536.64V35H1535.2V27.05ZM1535.92 25.52C1535.64 25.52 1535.41 25.43 1535.22 25.25C1535.04 25.07 1534.95 24.85 1534.95 24.59C1534.95 24.33 1535.04 24.11 1535.22 23.93C1535.41 23.74 1535.64 23.645 1535.92 23.645C1536.2 23.645 1536.43 23.735 1536.61 23.915C1536.8 24.085 1536.9 24.3 1536.9 24.56C1536.9 24.83 1536.8 25.06 1536.61 25.25C1536.43 25.43 1536.2 25.52 1535.92 25.52ZM1541.45 35.09C1540.8 35.09 1540.17 35.005 1539.57 34.835C1538.97 34.655 1538.5 34.43 1538.16 34.16L1538.76 33.02C1539.11 33.27 1539.54 33.47 1540.04 33.62C1540.54 33.77 1541.04 33.845 1541.55 33.845C1542.81 33.845 1543.44 33.485 1543.44 32.765C1543.44 32.525 1543.36 32.335 1543.19 32.195C1543.02 32.055 1542.8 31.955 1542.54 31.895C1542.29 31.825 1541.93 31.75 1541.46 31.67C1540.82 31.57 1540.3 31.455 1539.89 31.325C1539.49 31.195 1539.14 30.975 1538.85 30.665C1538.56 30.355 1538.42 29.92 1538.42 29.36C1538.42 28.64 1538.72 28.065 1539.32 27.635C1539.92 27.195 1540.72 26.975 1541.73 26.975C1542.26 26.975 1542.79 27.04 1543.32 27.17C1543.85 27.3 1544.29 27.475 1544.63 27.695L1544.01 28.835C1543.36 28.415 1542.6 28.205 1541.72 28.205C1541.11 28.205 1540.64 28.305 1540.32 28.505C1540 28.705 1539.84 28.97 1539.84 29.3C1539.84 29.56 1539.93 29.765 1540.11 29.915C1540.29 30.065 1540.51 30.175 1540.77 30.245C1541.04 30.315 1541.42 30.395 1541.9 30.485C1542.54 30.595 1543.05 30.715 1543.44 30.845C1543.84 30.965 1544.18 31.175 1544.46 31.475C1544.74 31.775 1544.88 32.195 1544.88 32.735C1544.88 33.455 1544.57 34.03 1543.95 34.46C1543.34 34.88 1542.51 35.09 1541.45 35.09ZM1550.93 34.535C1550.72 34.715 1550.46 34.855 1550.15 34.955C1549.84 35.045 1549.52 35.09 1549.19 35.09C1548.39 35.09 1547.77 34.875 1547.33 34.445C1546.89 34.015 1546.67 33.4 1546.67 32.6V28.235H1545.32V27.05H1546.67V25.31H1548.11V27.05H1550.39V28.235H1548.11V32.54C1548.11 32.97 1548.21 33.3 1548.42 33.53C1548.64 33.76 1548.95 33.875 1549.35 33.875C1549.79 33.875 1550.17 33.75 1550.48 33.5L1550.93 34.535ZM1559.36 31.07C1559.36 31.18 1559.35 31.325 1559.33 31.505H1552.88C1552.97 32.205 1553.28 32.77 1553.8 33.2C1554.33 33.62 1554.98 33.83 1555.76 33.83C1556.71 33.83 1557.48 33.51 1558.06 32.87L1558.85 33.8C1558.49 34.22 1558.04 34.54 1557.5 34.76C1556.97 34.98 1556.38 35.09 1555.72 35.09C1554.88 35.09 1554.13 34.92 1553.48 34.58C1552.83 34.23 1552.33 33.745 1551.97 33.125C1551.62 32.505 1551.44 31.805 1551.44 31.025C1551.44 30.255 1551.61 29.56 1551.95 28.94C1552.3 28.32 1552.78 27.84 1553.38 27.5C1553.99 27.15 1554.67 26.975 1555.43 26.975C1556.19 26.975 1556.87 27.15 1557.46 27.5C1558.06 27.84 1558.52 28.32 1558.85 28.94C1559.19 29.56 1559.36 30.27 1559.36 31.07ZM1555.43 28.19C1554.74 28.19 1554.16 28.4 1553.69 28.82C1553.23 29.24 1552.96 29.79 1552.88 30.47H1557.98C1557.9 29.8 1557.63 29.255 1557.16 28.835C1556.7 28.405 1556.12 28.19 1555.43 28.19ZM1562.52 28.385C1562.77 27.925 1563.14 27.575 1563.63 27.335C1564.12 27.095 1564.71 26.975 1565.41 26.975V28.37C1565.33 28.36 1565.22 28.355 1565.08 28.355C1564.3 28.355 1563.69 28.59 1563.24 29.06C1562.8 29.52 1562.58 30.18 1562.58 31.04V35H1561.14V27.05H1562.52V28.385Z" fill="white"/>
<rect x="1328.5" y="10.5" width="129" height="39" rx="5.5" fill="white" stroke="#18A0FB"/>
<path d="M1371.58 24.5H1373.08V33.695H1378.77V35H1371.58V24.5ZM1383.36 35.09C1382.57 35.09 1381.86 34.915 1381.23 34.565C1380.6 34.215 1380.1 33.735 1379.74 33.125C1379.39 32.505 1379.22 31.805 1379.22 31.025C1379.22 30.245 1379.39 29.55 1379.74 28.94C1380.1 28.32 1380.6 27.84 1381.23 27.5C1381.86 27.15 1382.57 26.975 1383.36 26.975C1384.15 26.975 1384.85 27.15 1385.47 27.5C1386.1 27.84 1386.59 28.32 1386.94 28.94C1387.3 29.55 1387.48 30.245 1387.48 31.025C1387.48 31.805 1387.3 32.505 1386.94 33.125C1386.59 33.735 1386.1 34.215 1385.47 34.565C1384.85 34.915 1384.15 35.09 1383.36 35.09ZM1383.36 33.83C1383.87 33.83 1384.32 33.715 1384.72 33.485C1385.13 33.245 1385.45 32.915 1385.68 32.495C1385.91 32.065 1386.03 31.575 1386.03 31.025C1386.03 30.475 1385.91 29.99 1385.68 29.57C1385.45 29.14 1385.13 28.81 1384.72 28.58C1384.32 28.35 1383.87 28.235 1383.36 28.235C1382.85 28.235 1382.39 28.35 1381.98 28.58C1381.58 28.81 1381.26 29.14 1381.02 29.57C1380.79 29.99 1380.67 30.475 1380.67 31.025C1380.67 31.575 1380.79 32.065 1381.02 32.495C1381.26 32.915 1381.58 33.245 1381.98 33.485C1382.39 33.715 1382.85 33.83 1383.36 33.83ZM1396.85 27.05V33.92C1396.85 35.31 1396.51 36.335 1395.82 36.995C1395.13 37.665 1394.1 38 1392.73 38C1391.98 38 1391.26 37.895 1390.58 37.685C1389.9 37.485 1389.35 37.195 1388.93 36.815L1389.62 35.705C1389.99 36.025 1390.45 36.275 1390.99 36.455C1391.54 36.645 1392.1 36.74 1392.68 36.74C1393.61 36.74 1394.3 36.52 1394.74 36.08C1395.19 35.64 1395.41 34.97 1395.41 34.07V33.44C1395.07 33.85 1394.65 34.16 1394.15 34.37C1393.66 34.57 1393.13 34.67 1392.55 34.67C1391.79 34.67 1391.1 34.51 1390.48 34.19C1389.87 33.86 1389.39 33.405 1389.04 32.825C1388.69 32.235 1388.51 31.565 1388.51 30.815C1388.51 30.065 1388.69 29.4 1389.04 28.82C1389.39 28.23 1389.87 27.775 1390.48 27.455C1391.1 27.135 1391.79 26.975 1392.55 26.975C1393.15 26.975 1393.7 27.085 1394.21 27.305C1394.73 27.525 1395.16 27.85 1395.49 28.28V27.05H1396.85ZM1392.71 33.41C1393.23 33.41 1393.7 33.3 1394.11 33.08C1394.53 32.86 1394.85 32.555 1395.08 32.165C1395.32 31.765 1395.44 31.315 1395.44 30.815C1395.44 30.045 1395.19 29.425 1394.68 28.955C1394.17 28.475 1393.51 28.235 1392.71 28.235C1391.9 28.235 1391.24 28.475 1390.73 28.955C1390.22 29.425 1389.97 30.045 1389.97 30.815C1389.97 31.315 1390.08 31.765 1390.31 32.165C1390.55 32.555 1390.88 32.86 1391.29 33.08C1391.71 33.3 1392.18 33.41 1392.71 33.41ZM1403.18 27.05H1404.62V35H1403.18V27.05ZM1403.9 25.52C1403.62 25.52 1403.39 25.43 1403.2 25.25C1403.02 25.07 1402.93 24.85 1402.93 24.59C1402.93 24.33 1403.02 24.11 1403.2 23.93C1403.39 23.74 1403.62 23.645 1403.9 23.645C1404.18 23.645 1404.41 23.735 1404.59 23.915C1404.78 24.085 1404.88 24.3 1404.88 24.56C1404.88 24.83 1404.78 25.06 1404.59 25.25C1404.41 25.43 1404.18 25.52 1403.9 25.52ZM1411.39 26.975C1412.4 26.975 1413.2 27.27 1413.79 27.86C1414.39 28.44 1414.69 29.295 1414.69 30.425V35H1413.25V30.59C1413.25 29.82 1413.07 29.24 1412.7 28.85C1412.33 28.46 1411.8 28.265 1411.11 28.265C1410.33 28.265 1409.71 28.495 1409.26 28.955C1408.81 29.405 1408.59 30.055 1408.59 30.905V35H1407.15V27.05H1408.53V28.25C1408.82 27.84 1409.21 27.525 1409.7 27.305C1410.2 27.085 1410.76 26.975 1411.39 26.975Z" fill="#18A0FB"/>
</svg>
